<?xml version="1.0" encoding="utf-8"?>
<svg xmlns="http://www.w3.org/2000/svg"
	xmlns:xlink="http://www.w3.org/1999/xlink"
	width="8px" height="16px" viewBox="0 0 8 16">
<path fillRule="evenodd" d="M 5.95 3.01C 5.95 3.01 8.01 3.01 8.01 3.01 8.01 3.01 8.01-0.03 8.01-0.03 8.01-0.03 5.59-0.03 5.59-0.03 5.59-0.03 5.59-0.02 5.59-0.02 2.65 0.08 2.05 1.73 1.99 3.47 1.99 3.47 1.99 3.47 1.99 3.47 1.99 3.47 1.99 4.99 1.99 4.99 1.99 4.99-0.01 4.99-0.01 4.99-0.01 4.99-0.01 7.97-0.01 7.97-0.01 7.97 1.99 7.97 1.99 7.97 1.99 7.97 1.99 15.97 1.99 15.97 1.99 15.97 5 15.97 5 15.97 5 15.97 5 7.97 5 7.97 5 7.97 7.47 7.97 7.47 7.97 7.47 7.97 7.95 4.99 7.95 4.99 7.95 4.99 5 4.99 5 4.99 5 4.99 5 4.07 5 4.07 5 3.49 5.39 3.01 5.95 3.01Z" fill="rgb(255,255,255)"/></svg>