<?xml version="1.0" encoding="utf-8"?>
<svg xmlns="http://www.w3.org/2000/svg"
	xmlns:xlink="http://www.w3.org/1999/xlink"
	width="20px" height="20px" viewBox="0 0 20 20">
<path fillRule="evenodd" d="M 13.45 19.73C 13.38 18.75 13.3 17.54 13.29 17.04 13.26 16.67 13.22 15.71 12.33 15.09 15.88 14.79 17.57 12.79 17.69 10.15 17.8 8.64 17.21 7.32 16.16 6.25 16.22 5.1 16.13 3.75 16.06 3.15 15.26 2.92 13.39 3.93 12.87 4.36 11.76 3.92 9.07 3.77 7.43 4.36 6.27 3.52 4.94 3.01 4.22 3.15 3.56 4.65 3.99 6.07 4.12 6.24 3.26 7.04 2.06 8.02 2.39 10.08 2.91 13.09 4.99 14.72 8.35 15.12 7.63 15.27 7.51 15.81 7.45 16.04 5.2 16.99 4.55 15.46 4.27 15.06 3.32 13.87 2.48 14.22 2.42 14.23 2.37 14.25 2.33 14.33 2.34 14.37 2.39 14.62 2.9 14.88 2.93 14.9 3.62 15.43 3.88 16.39 4.04 16.66 5.04 18.34 7.37 17.64 7.39 17.66 7.39 17.8 7.38 19.04 7.36 20 3.12 18.82 0 14.88 0 10.18 0 4.56 4.48 0 10 0 15.52 0 20 4.56 20 10.18 20 14.57 17.27 18.3 13.45 19.73Z" fill="rgb(43,65,77)"/></svg>