<?xml version="1.0" encoding="utf-8"?>
<svg xmlns="http://www.w3.org/2000/svg"
	xmlns:xlink="http://www.w3.org/1999/xlink"
	width="19px" height="15px" viewBox="0 0 19 15">
<path fillRule="evenodd" d="M 19 1.78C 18.3 2.08 17.55 2.28 16.76 2.38 17.57 1.91 18.19 1.17 18.48 0.28 17.72 0.72 16.89 1.03 16 1.2 15.29 0.46 14.28 0.01 13.16 0.01 11 0.01 9.26 1.7 9.26 3.79 9.26 4.09 9.29 4.37 9.36 4.65 6.12 4.49 3.24 2.99 1.32 0.7 0.99 1.26 0.79 1.91 0.79 2.6 0.79 3.91 1.48 5.07 2.53 5.75 1.89 5.73 1.29 5.56 0.76 5.28 0.76 5.29 0.76 5.31 0.76 5.32 0.76 7.16 2.1 8.69 3.89 9.03 3.56 9.12 3.22 9.17 2.86 9.17 2.61 9.17 2.37 9.14 2.13 9.1 2.62 10.6 4.06 11.7 5.77 11.73 4.44 12.74 2.75 13.35 0.93 13.35 0.61 13.35 0.3 13.33-0 13.3 1.72 14.37 3.77 15 5.97 15 13.15 15 17.07 9.23 17.07 4.23 17.07 4.06 17.06 3.9 17.06 3.74 17.82 3.21 18.48 2.54 19 1.78Z" fill="rgb(255,255,255)"/></svg>